<svg width="60" height="60" viewBox="0 0 60 60" fill="none" xmlns="http://www.w3.org/2000/svg">
<path d="M37.5 7.5H22.5C14.2157 7.5 7.5 14.2157 7.5 22.5V37.5C7.5 45.7843 14.2157 52.5 22.5 52.5H37.5C45.7843 52.5 52.5 45.7843 52.5 37.5V22.5C52.5 14.2157 45.7843 7.5 37.5 7.5Z" fill="#171C21"/>
<path d="M30 42.5C36.9036 42.5 42.5 36.9036 42.5 30C42.5 23.0964 36.9036 17.5 30 17.5C23.0964 17.5 17.5 23.0964 17.5 30C17.5 36.9036 23.0964 42.5 30 42.5Z" stroke="#F0B400" stroke-width="2.5" stroke-linecap="round" stroke-linejoin="round"/>
<path d="M30 20C24.4771 20 20 24.4771 20 30" stroke="#F0B400" stroke-width="2.5" stroke-linecap="round"/>
<path d="M30 30L37.5 22.5" stroke="#E67E22" stroke-width="2.5" stroke-linecap="round"/>
<path d="M37.5 25.625C39.2259 25.625 40.625 24.2259 40.625 22.5C40.625 20.7741 39.2259 19.375 37.5 19.375C35.7741 19.375 34.375 20.7741 34.375 22.5C34.375 24.2259 35.7741 25.625 37.5 25.625Z" fill="#E67E22"/>
<path d="M30 32.5C31.3807 32.5 32.5 31.3807 32.5 30C32.5 28.6193 31.3807 27.5 30 27.5C28.6193 27.5 27.5 28.6193 27.5 30C27.5 31.3807 28.6193 32.5 30 32.5Z" fill="#F0B400"/>
</svg>
