<svg width="24" height="24" viewBox="0 0 24 24" fill="none" xmlns="http://www.w3.org/2000/svg">
<path d="M11.9999 3C9.7908 3 7.99994 4.79086 7.99994 7V9.8C7.99994 10.37 7.77994 10.92 7.38994 11.33L6.21994 12.6C5.47994 13.4 6.04994 14.75 7.15994 14.75H16.8399C17.9499 14.75 18.5199 13.4 17.7799 12.6L16.6099 11.33C16.2199 10.92 15.9999 10.37 15.9999 9.8V7C15.9999 4.79086 14.209 3 11.9999 3Z" stroke="#4B5563" stroke-width="1.8" stroke-linecap="round" stroke-linejoin="round"/>
<path d="M10 17C10.3 18.2 11.3 19 12.5 19C13.7 19 14.7 18.2 15 17" stroke="#4B5563" stroke-width="1.8" stroke-linecap="round" stroke-linejoin="round"/>
</svg>
