<svg viewBox="0 0 24 24" fill="none" xmlns="http://www.w3.org/2000/svg" class="h-6 w-6 shrink-0">
  <path
    d="M9 3H5C3.89543 3 3 3.89543 3 5V9C3 10.1046 3.89543 11 5 11H9C10.1046 11 11 10.1046 11 9V5C11 3.89543 10.1046 3 9 3Z"
    stroke="currentColor"
    stroke-width="1.8"
    stroke-linejoin="round"
  />
  <path
    d="M19 3H15C13.8954 3 13 3.89543 13 5V6C13 7.10457 13.8954 8 15 8H19C20.1046 8 21 7.10457 21 6V5C21 3.89543 20.1046 3 19 3Z"
    stroke="currentColor"
    stroke-width="1.8"
    stroke-linejoin="round"
  />
  <path
    d="M19 10H15C13.8954 10 13 10.8954 13 12V19C13 20.1046 13.8954 21 15 21H19C20.1046 21 21 20.1046 21 19V12C21 10.8954 20.1046 10 19 10Z"
    stroke="currentColor"
    stroke-width="1.8"
    stroke-linejoin="round"
  />
  <path
    d="M9 13H5C3.89543 13 3 13.8954 3 15V19C3 20.1046 3.89543 21 5 21H9C10.1046 21 11 20.1046 11 19V15C11 13.8954 10.1046 13 9 13Z"
    stroke="currentColor"
    stroke-width="1.8"
    stroke-linejoin="round"
  />
</svg>
