<svg width="32" height="32" viewBox="0 0 32 32" fill="none" xmlns="http://www.w3.org/2000/svg">
<g clip-path="url(#clip0_67_323)">
<path d="M16 30.6667C24.1002 30.6667 30.6667 24.1002 30.6667 16C30.6667 7.89982 24.1002 1.33333 16 1.33333C7.89986 1.33333 1.33337 7.89982 1.33337 16C1.33337 24.1002 7.89986 30.6667 16 30.6667Z" stroke="#E67E22" stroke-width="2.4"/>
<path d="M16 16C18.5774 16 20.6667 13.9107 20.6667 11.3333C20.6667 8.756 18.5774 6.66667 16 6.66667C13.4227 6.66667 11.3334 8.756 11.3334 11.3333C11.3334 13.9107 13.4227 16 16 16Z" stroke="#E67E22" stroke-width="2.4" stroke-linecap="round" stroke-linejoin="round"/>
<path d="M7.33337 25.3333C8.13337 21.3333 11.7334 19.3333 16 19.3333C20.2667 19.3333 23.8667 21.3333 24.6667 25.3333" stroke="#E67E22" stroke-width="2.4" stroke-linecap="round" stroke-linejoin="round"/>
</g>
<defs>
<clipPath id="clip0_67_323">
<rect width="32" height="32" fill="white"/>
</clipPath>
</defs>
</svg>
