<svg
  viewBox="0 0 24 24"
  fill="none"
  xmlns="http://www.w3.org/2000/svg"
  class="h-6 w-6 shrink-0"
>
  <path
    d="M10.2 4L10.6 3H13.4L13.8 4L15.1 4.5L16.1 3.8L18.2 5.9L17.5 6.9L18 8.2L19 8.6V11.4L18 11.8L17.5 13.1L18.2 14.1L16.1 16.2L15.1 15.5L13.8 16L13.4 17H10.6L10.2 16L8.9 15.5L7.9 16.2L5.8 14.1L6.5 13.1L6 11.8L5 11.4V8.6L6 8.2L6.5 6.9L5.8 5.9L7.9 3.8L8.9 4.5L10.2 4Z"
    stroke="currentColor"
    stroke-width="1.8"
    stroke-linejoin="round"
  />
  <path
    d="M12 12.5C13.3807 12.5 14.5 11.3807 14.5 10C14.5 8.61929 13.3807 7.5 12 7.5C10.6193 7.5 9.5 8.61929 9.5 10C9.5 11.3807 10.6193 12.5 12 12.5Z"
    stroke="currentColor"
    stroke-width="1.8"
  />
</svg>
